<svg xmlns="http://www.w3.org/2000/svg" width="80" height="16" viewBox="0 0 80 16" shape-rendering="crispEdges">
  <rect width="80" height="16" fill="#111827"/>

  <!-- Cell 0: move_hint -->
  <g transform="translate(0 0)">
    <rect x="3" y="3" width="10" height="10" fill="#263241"/>
    <rect x="7" y="2" width="2" height="12" fill="#38bdf8"/>
    <rect x="2" y="7" width="12" height="2" fill="#38bdf8"/>
    <rect x="6" y="3" width="4" height="2" fill="#f8c14a"/>
    <rect x="6" y="11" width="4" height="2" fill="#f8c14a"/>
    <rect x="3" y="6" width="2" height="4" fill="#f8c14a"/>
    <rect x="11" y="6" width="2" height="4" fill="#f8c14a"/>
    <rect x="7" y="7" width="2" height="2" fill="#f8fafc"/>
  </g>

  <!-- Cell 1: interact_ready -->
  <g transform="translate(16 0)">
    <rect x="3" y="3" width="10" height="10" fill="#263241"/>
    <rect x="4" y="4" width="3" height="2" fill="#38bdf8"/>
    <rect x="4" y="4" width="2" height="3" fill="#38bdf8"/>
    <rect x="9" y="4" width="3" height="2" fill="#38bdf8"/>
    <rect x="10" y="4" width="2" height="3" fill="#38bdf8"/>
    <rect x="4" y="10" width="3" height="2" fill="#38bdf8"/>
    <rect x="4" y="9" width="2" height="3" fill="#38bdf8"/>
    <rect x="9" y="10" width="3" height="2" fill="#38bdf8"/>
    <rect x="10" y="9" width="2" height="3" fill="#38bdf8"/>
    <rect x="7" y="7" width="2" height="2" fill="#f8fafc"/>
    <rect x="7" y="2" width="2" height="2" fill="#39d98a"/>
    <rect x="7" y="12" width="2" height="2" fill="#39d98a"/>
    <rect x="2" y="7" width="2" height="2" fill="#39d98a"/>
    <rect x="12" y="7" width="2" height="2" fill="#39d98a"/>
  </g>

  <!-- Cell 2: repair_failed -->
  <g transform="translate(32 0)">
    <rect x="2" y="4" width="12" height="8" fill="#263241"/>
    <rect x="3" y="5" width="10" height="2" fill="#f8c14a"/>
    <rect x="3" y="9" width="10" height="2" fill="#f8c14a"/>
    <rect x="4" y="4" width="2" height="2" fill="#ef476f"/>
    <rect x="6" y="6" width="2" height="2" fill="#ef476f"/>
    <rect x="8" y="8" width="2" height="2" fill="#ef476f"/>
    <rect x="10" y="10" width="2" height="2" fill="#ef476f"/>
    <rect x="10" y="4" width="2" height="2" fill="#ef476f"/>
    <rect x="8" y="6" width="2" height="2" fill="#ef476f"/>
    <rect x="6" y="8" width="2" height="2" fill="#ef476f"/>
    <rect x="4" y="10" width="2" height="2" fill="#ef476f"/>
    <rect x="7" y="7" width="2" height="2" fill="#f8fafc"/>
  </g>

  <!-- Cell 3: sealed_check_ready -->
  <g transform="translate(48 0)">
    <rect x="3" y="6" width="10" height="7" fill="#263241"/>
    <rect x="5" y="3" width="6" height="4" fill="#f8c14a"/>
    <rect x="6" y="4" width="4" height="3" fill="#111827"/>
    <rect x="4" y="7" width="8" height="5" fill="#38bdf8"/>
    <rect x="7" y="8" width="2" height="2" fill="#111827"/>
    <rect x="7" y="10" width="2" height="1" fill="#111827"/>
    <rect x="10" y="5" width="2" height="2" fill="#39d98a"/>
    <rect x="11" y="4" width="2" height="2" fill="#39d98a"/>
    <rect x="5" y="13" width="6" height="1" fill="#39d98a"/>
  </g>

  <!-- Cell 4: route_open -->
  <g transform="translate(64 0)">
    <rect x="1" y="6" width="13" height="4" fill="#263241"/>
    <rect x="2" y="7" width="9" height="2" fill="#39d98a"/>
    <rect x="9" y="5" width="2" height="6" fill="#39d98a"/>
    <rect x="11" y="6" width="2" height="4" fill="#39d98a"/>
    <rect x="13" y="7" width="1" height="2" fill="#f8fafc"/>
    <rect x="3" y="4" width="2" height="2" fill="#38bdf8"/>
    <rect x="5" y="3" width="2" height="2" fill="#f8c14a"/>
    <rect x="3" y="10" width="2" height="2" fill="#38bdf8"/>
    <rect x="5" y="11" width="2" height="2" fill="#f8c14a"/>
  </g>
</svg>
