<svg xmlns="http://www.w3.org/2000/svg" width="16" height="16" viewBox="0 0 16 16" shape-rendering="crispEdges">
  <rect width="16" height="16" fill="none"/>
  <rect x="2" y="2" width="12" height="12" fill="#111827"/>
  <rect x="3" y="3" width="10" height="10" fill="#263241"/>
  <rect x="4" y="4" width="8" height="2" fill="#38bdf8"/>
  <rect x="4" y="7" width="8" height="1" fill="#38bdf8"/>
  <rect x="4" y="10" width="8" height="1" fill="#38bdf8"/>
  <rect x="3" y="13" width="10" height="1" fill="#f8c14a"/>
  <rect x="5" y="5" width="2" height="8" fill="#f8c14a"/>
  <rect x="9" y="5" width="2" height="8" fill="#f8c14a"/>
  <rect x="7" y="4" width="2" height="1" fill="#f8fafc"/>
  <rect x="7" y="8" width="2" height="1" fill="#39d98a"/>
  <rect x="7" y="11" width="2" height="1" fill="#39d98a"/>
  <rect x="5" y="6" width="1" height="1" fill="#ef476f"/>
  <rect x="10" y="9" width="1" height="1" fill="#ef476f"/>
  <rect x="6" y="2" width="4" height="1" fill="#f8fafc"/>
</svg>
