<svg xmlns="http://www.w3.org/2000/svg" width="16" height="16" viewBox="0 0 16 16" shape-rendering="crispEdges">
  <rect width="16" height="16" fill="none"/>
  <rect x="5" y="2" width="6" height="2" fill="#111827"/>
  <rect x="4" y="4" width="8" height="2" fill="#111827"/>
  <rect x="3" y="6" width="10" height="7" fill="#111827"/>
  <rect x="4" y="5" width="8" height="7" fill="#f8c14a"/>
  <rect x="5" y="6" width="2" height="2" fill="#ef476f"/>
  <rect x="9" y="6" width="2" height="2" fill="#ef476f"/>
  <rect x="6" y="10" width="4" height="1" fill="#111827"/>
  <rect x="2" y="11" width="2" height="2" fill="#111827"/>
  <rect x="12" y="11" width="2" height="2" fill="#111827"/>
  <rect x="3" y="13" width="10" height="1" fill="#111827"/>
  <rect x="5" y="3" width="2" height="1" fill="#f8fafc"/>
  <rect x="9" y="3" width="2" height="1" fill="#f8fafc"/>
  <rect x="7" y="2" width="1" height="2" fill="#ef476f"/>
  <rect x="8" y="3" width="1" height="2" fill="#ef476f"/>
</svg>
