<svg xmlns="http://www.w3.org/2000/svg" width="80" height="16" viewBox="0 0 80 16" shape-rendering="crispEdges">
  <rect width="80" height="16" fill="none"/>
  <rect x="1" y="1" width="14" height="14" fill="#111827"/>
  <rect x="2" y="2" width="12" height="12" fill="#263241"/>
  <rect x="5" y="5" width="6" height="6" fill="#f8c14a"/>
  <rect x="4" y="3" width="2" height="2" fill="#38bdf8"/>
  <rect x="10" y="3" width="2" height="2" fill="#38bdf8"/>
  <rect x="4" y="11" width="2" height="2" fill="#38bdf8"/>
  <rect x="10" y="11" width="2" height="2" fill="#38bdf8"/>
  <rect x="6" y="12" width="4" height="1" fill="#39d98a"/>
  <rect x="17" y="1" width="14" height="14" fill="#111827"/>
  <rect x="18" y="2" width="12" height="12" fill="#263241"/>
  <rect x="20" y="5" width="4" height="4" fill="#f8c14a"/>
  <rect x="25" y="7" width="4" height="4" fill="#f8c14a"/>
  <rect x="24" y="4" width="3" height="1" fill="#38bdf8"/>
  <rect x="26" y="5" width="1" height="2" fill="#38bdf8"/>
  <rect x="23" y="11" width="3" height="1" fill="#38bdf8"/>
  <rect x="23" y="9" width="1" height="2" fill="#38bdf8"/>
  <rect x="33" y="1" width="14" height="14" fill="#111827"/>
  <rect x="34" y="2" width="12" height="12" fill="#263241"/>
  <rect x="36" y="10" width="2" height="2" fill="#f8c14a"/>
  <rect x="39" y="8" width="2" height="4" fill="#f8c14a"/>
  <rect x="42" y="6" width="2" height="6" fill="#f8c14a"/>
  <rect x="37" y="13" width="8" height="1" fill="#38bdf8"/>
  <rect x="39" y="4" width="2" height="2" fill="#39d98a"/>
  <rect x="41" y="6" width="2" height="2" fill="#39d98a"/>
  <rect x="43" y="3" width="2" height="2" fill="#39d98a"/>
  <rect x="49" y="1" width="14" height="14" fill="#111827"/>
  <rect x="50" y="2" width="12" height="12" fill="#263241"/>
  <rect x="55" y="6" width="5" height="1" fill="#38bdf8"/>
  <rect x="59" y="7" width="1" height="4" fill="#38bdf8"/>
  <rect x="54" y="11" width="5" height="1" fill="#38bdf8"/>
  <rect x="53" y="7" width="1" height="4" fill="#38bdf8"/>
  <rect x="57" y="4" width="2" height="2" fill="#38bdf8"/>
  <rect x="52" y="10" width="2" height="2" fill="#38bdf8"/>
  <rect x="55" y="7" width="4" height="4" fill="#f8c14a"/>
  <rect x="65" y="1" width="14" height="14" fill="#111827"/>
  <rect x="66" y="2" width="12" height="12" fill="#263241"/>
  <rect x="68" y="4" width="8" height="7" fill="#38bdf8"/>
  <rect x="69" y="5" width="6" height="5" fill="#f8c14a"/>
  <rect x="70" y="3" width="4" height="2" fill="#38bdf8"/>
  <rect x="70" y="7" width="2" height="2" fill="#111827"/>
  <rect x="72" y="9" width="2" height="1" fill="#111827"/>
  <rect x="69" y="12" width="2" height="2" fill="#39d98a"/>
  <rect x="71" y="13" width="2" height="1" fill="#39d98a"/>
  <rect x="73" y="11" width="2" height="2" fill="#39d98a"/>
</svg>
