<svg xmlns="http://www.w3.org/2000/svg" width="64" height="16" viewBox="0 0 64 16" shape-rendering="crispEdges">
  <rect width="64" height="16" fill="none"/>
  <rect x="1" y="1" width="14" height="14" fill="#111827"/>
  <rect x="2" y="2" width="12" height="12" fill="#263241"/>
  <rect x="5" y="3" width="6" height="10" fill="#38bdf8"/>
  <rect x="6" y="4" width="4" height="8" fill="#263241"/>
  <rect x="6" y="5" width="4" height="1" fill="#f8c14a"/>
  <rect x="6" y="8" width="3" height="1" fill="#f8c14a"/>
  <rect x="6" y="11" width="4" height="1" fill="#39d98a"/>
  <rect x="17" y="1" width="14" height="14" fill="#111827"/>
  <rect x="18" y="2" width="12" height="12" fill="#263241"/>
  <rect x="21" y="4" width="7" height="7" fill="#38bdf8"/>
  <rect x="22" y="5" width="5" height="5" fill="#263241"/>
  <rect x="22" y="3" width="5" height="2" fill="#f8c14a"/>
  <rect x="23" y="7" width="3" height="2" fill="#39d98a"/>
  <rect x="24" y="6" width="1" height="4" fill="#39d98a"/>
  <rect x="20" y="12" width="2" height="1" fill="#f8c14a"/>
  <rect x="24" y="12" width="2" height="1" fill="#f8c14a"/>
  <rect x="28" y="12" width="1" height="1" fill="#f8c14a"/>
  <rect x="33" y="1" width="14" height="14" fill="#111827"/>
  <rect x="34" y="2" width="12" height="12" fill="#263241"/>
  <rect x="36" y="4" width="8" height="2" fill="#f8c14a"/>
  <rect x="36" y="7" width="8" height="2" fill="#f8c14a"/>
  <rect x="36" y="10" width="8" height="2" fill="#f8c14a"/>
  <rect x="39" y="4" width="1" height="8" fill="#38bdf8"/>
  <rect x="43" y="4" width="1" height="8" fill="#38bdf8"/>
  <rect x="38" y="5" width="2" height="2" fill="#ef476f"/>
  <rect x="41" y="8" width="2" height="2" fill="#ef476f"/>
  <rect x="49" y="1" width="14" height="14" fill="#111827"/>
  <rect x="50" y="2" width="12" height="12" fill="#263241"/>
  <rect x="53" y="4" width="2" height="2" fill="#f8c14a"/>
  <rect x="56" y="4" width="2" height="2" fill="#f8c14a"/>
  <rect x="54" y="7" width="2" height="2" fill="#f8c14a"/>
  <rect x="57" y="7" width="2" height="2" fill="#f8c14a"/>
  <rect x="54" y="10" width="2" height="2" fill="#39d98a"/>
  <rect x="56" y="11" width="2" height="2" fill="#39d98a"/>
  <rect x="58" y="9" width="2" height="2" fill="#39d98a"/>
  <rect x="55" y="3" width="5" height="1" fill="#38bdf8"/>
</svg>
