<svg xmlns="http://www.w3.org/2000/svg" width="96" height="16" viewBox="0 0 96 16" shape-rendering="crispEdges">
  <rect width="96" height="16" fill="none"/>
  <rect x="1" y="1" width="14" height="14" fill="#111827"/>
  <rect x="2" y="2" width="12" height="12" fill="#263241"/>
  <rect x="5" y="5" width="6" height="6" fill="#f8c14a"/>
  <rect x="6" y="4" width="4" height="1" fill="#f8fafc"/>
  <rect x="6" y="11" width="4" height="1" fill="#38bdf8"/>
  <rect x="18" y="1" width="14" height="14" fill="#111827"/>
  <rect x="19" y="2" width="12" height="12" fill="#263241"/>
  <rect x="21" y="4" width="8" height="8" fill="#38bdf8"/>
  <rect x="22" y="5" width="6" height="6" fill="#f8c14a"/>
  <rect x="23" y="6" width="4" height="1" fill="#f8fafc"/>
  <rect x="20" y="13" width="10" height="1" fill="#39d98a"/>
  <rect x="35" y="1" width="14" height="14" fill="#111827"/>
  <rect x="36" y="2" width="12" height="12" fill="#263241"/>
  <rect x="38" y="10" width="8" height="2" fill="#38bdf8"/>
  <rect x="37" y="5" width="2" height="5" fill="#f8c14a"/>
  <rect x="40" y="4" width="2" height="6" fill="#f8c14a"/>
  <rect x="43" y="3" width="2" height="7" fill="#f8c14a"/>
  <rect x="45" y="12" width="2" height="1" fill="#39d98a"/>
  <rect x="52" y="1" width="14" height="14" fill="#111827"/>
  <rect x="53" y="2" width="12" height="12" fill="#263241"/>
  <rect x="54" y="4" width="10" height="2" fill="#38bdf8"/>
  <rect x="55" y="8" width="8" height="1" fill="#38bdf8"/>
  <rect x="55" y="11" width="8" height="1" fill="#38bdf8"/>
  <rect x="56" y="5" width="2" height="8" fill="#f8c14a"/>
  <rect x="61" y="5" width="2" height="8" fill="#f8c14a"/>
  <rect x="58" y="7" width="3" height="2" fill="#ef476f"/>
  <rect x="60" y="9" width="2" height="2" fill="#ef476f"/>
  <rect x="69" y="1" width="10" height="3" fill="#111827"/>
  <rect x="68" y="4" width="12" height="2" fill="#111827"/>
  <rect x="67" y="6" width="14" height="7" fill="#111827"/>
  <rect x="68" y="5" width="12" height="7" fill="#f8c14a"/>
  <rect x="69" y="6" width="2" height="2" fill="#ef476f"/>
  <rect x="77" y="6" width="2" height="2" fill="#ef476f"/>
  <rect x="71" y="10" width="5" height="1" fill="#111827"/>
  <rect x="70" y="3" width="2" height="1" fill="#f8fafc"/>
  <rect x="76" y="3" width="2" height="1" fill="#f8fafc"/>
  <rect x="72" y="2" width="1" height="2" fill="#ef476f"/>
  <rect x="75" y="3" width="1" height="2" fill="#ef476f"/>
  <rect x="84" y="1" width="11" height="14" fill="#111827"/>
  <rect x="85" y="2" width="9" height="12" fill="#263241"/>
  <rect x="86" y="4" width="7" height="2" fill="#38bdf8"/>
  <rect x="86" y="8" width="7" height="1" fill="#38bdf8"/>
  <rect x="86" y="11" width="7" height="1" fill="#38bdf8"/>
  <rect x="87" y="5" width="2" height="8" fill="#f8c14a"/>
  <rect x="91" y="5" width="1" height="8" fill="#f8c14a"/>
  <rect x="89" y="7" width="2" height="1" fill="#39d98a"/>
  <rect x="88" y="10" width="4" height="1" fill="#39d98a"/>
  <rect x="89" y="13" width="3" height="1" fill="#39d98a"/>
</svg>
